<svg width="58" height="50" viewBox="0 0 58 50" fill="none" xmlns="http://www.w3.org/2000/svg">
<line x1="11.7573" y1="10.8491" x2="46.0089" y2="10.8491" stroke="#8A8A8A" stroke-width="4.71698"/>
<path d="M46.009 10.8491C50.5082 10.8491 54.7171 9.19811 54.7171 0" stroke="#8A8A8A" stroke-width="4.71698"/>
<path d="M13.3733 10.8491C13.3733 12.0777 12.5999 12.9717 11.7575 12.9717C10.915 12.9717 10.1416 12.0777 10.1416 10.8491C10.1416 9.62042 10.915 8.72642 11.7575 8.72642C12.5999 8.72642 13.3733 9.62042 13.3733 10.8491Z" fill="#8A8A8A" stroke="#8A8A8A" stroke-width="0.471698"/>
<line x1="11.7573" y1="29.2453" x2="46.0089" y2="29.2453" stroke="#8A8A8A" stroke-width="4.71698"/>
<path d="M46.009 29.2453C50.5082 29.2453 54.7171 27.5944 54.7171 18.3962" stroke="#8A8A8A" stroke-width="4.71698"/>
<path d="M13.3733 29.2453C13.3733 30.4739 12.5999 31.3679 11.7575 31.3679C10.915 31.3679 10.1416 30.4739 10.1416 29.2453C10.1416 28.0166 10.915 27.1226 11.7575 27.1226C12.5999 27.1226 13.3733 28.0166 13.3733 29.2453Z" fill="#8A8A8A" stroke="#8A8A8A" stroke-width="0.471698"/>
<line x1="11.7573" y1="47.6415" x2="46.0089" y2="47.6415" stroke="#8A8A8A" stroke-width="4.71698"/>
<path d="M46.009 47.6415C50.5082 47.6415 54.7171 45.9906 54.7171 36.7924" stroke="#8A8A8A" stroke-width="4.71698"/>
<path d="M13.3733 47.6415C13.3733 48.8701 12.5999 49.7642 11.7575 49.7642C10.915 49.7642 10.1416 48.8701 10.1416 47.6415C10.1416 46.4129 10.915 45.5189 11.7575 45.5189C12.5999 45.5189 13.3733 46.4129 13.3733 47.6415Z" fill="#8A8A8A" stroke="#8A8A8A" stroke-width="0.471698"/>
<rect x="0.235849" y="0.235849" width="4.24528" height="49.5283" rx="2.12264" fill="#8A8A8A" stroke="#8A8A8A" stroke-width="0.471698"/>
</svg>
