<svg width="29" height="26" viewBox="0 0 29 26" fill="none" xmlns="http://www.w3.org/2000/svg">
<line x1="5.92584" y1="5.86796" x2="23.1886" y2="5.86796" stroke="#A8A8A8" stroke-width="2.37736"/>
<path d="M23.1885 5.86795C25.4561 5.86795 27.5774 5.03587 27.5774 0.400024" stroke="#A8A8A8" stroke-width="2.37736"/>
<path d="M6.74021 5.86788C6.74021 6.48711 6.35041 6.93769 5.92581 6.93769C5.50122 6.93769 5.11142 6.48711 5.11142 5.86788C5.11142 5.24865 5.50122 4.79807 5.92581 4.79807C6.35041 4.79807 6.74021 5.24865 6.74021 5.86788Z" fill="#A8A8A8" stroke="#A8A8A8" stroke-width="0.237736"/>
<line x1="5.92584" y1="15.1396" x2="23.1886" y2="15.1396" stroke="#A8A8A8" stroke-width="2.37736"/>
<path d="M23.1885 15.1396C25.4561 15.1396 27.5774 14.3075 27.5774 9.67169" stroke="#A8A8A8" stroke-width="2.37736"/>
<path d="M6.74021 15.1396C6.74021 15.7588 6.35041 16.2094 5.92581 16.2094C5.50122 16.2094 5.11142 15.7588 5.11142 15.1396C5.11142 14.5204 5.50122 14.0698 5.92581 14.0698C6.35041 14.0698 6.74021 14.5204 6.74021 15.1396Z" fill="#A8A8A8" stroke="#A8A8A8" stroke-width="0.237736"/>
<line x1="5.92584" y1="24.4113" x2="23.1886" y2="24.4113" stroke="#A8A8A8" stroke-width="2.37736"/>
<path d="M23.1885 24.4113C25.4561 24.4113 27.5774 23.5792 27.5774 18.9434" stroke="#A8A8A8" stroke-width="2.37736"/>
<path d="M6.74021 24.4113C6.74021 25.0306 6.35041 25.4811 5.92581 25.4811C5.50122 25.4811 5.11142 25.0306 5.11142 24.4113C5.11142 23.7921 5.50122 23.3415 5.92581 23.3415C6.35041 23.3415 6.74021 23.7921 6.74021 24.4113Z" fill="#A8A8A8" stroke="#A8A8A8" stroke-width="0.237736"/>
<rect x="0.118868" y="0.518892" width="2.13962" height="24.9623" rx="1.06981" fill="#A8A8A8" stroke="#A8A8A8" stroke-width="0.237736"/>
</svg>
