<svg width="70" height="70" viewBox="0 0 70 70" fill="none" xmlns="http://www.w3.org/2000/svg">
<circle cx="35" cy="35" r="34.5" stroke="white"/>
<line x1="26.9258" y1="27.4679" x2="44.1886" y2="27.4679" stroke="#A8A8A8" stroke-width="2.37736"/>
<path d="M44.1885 27.4679C46.456 27.4679 48.5773 26.6358 48.5773 22" stroke="#A8A8A8" stroke-width="2.37736"/>
<path d="M27.7401 27.4679C27.7401 28.0871 27.3503 28.5377 26.9257 28.5377C26.5011 28.5377 26.1113 28.0871 26.1113 27.4679C26.1113 26.8486 26.5011 26.398 26.9257 26.398C27.3503 26.398 27.7401 26.8486 27.7401 27.4679Z" fill="#A8A8A8" stroke="#A8A8A8" stroke-width="0.237736"/>
<line x1="26.9258" y1="36.7396" x2="44.1886" y2="36.7396" stroke="#A8A8A8" stroke-width="2.37736"/>
<path d="M44.1885 36.7396C46.456 36.7396 48.5773 35.9075 48.5773 31.2717" stroke="#A8A8A8" stroke-width="2.37736"/>
<path d="M27.7401 36.7396C27.7401 37.3588 27.3503 37.8094 26.9257 37.8094C26.5011 37.8094 26.1113 37.3588 26.1113 36.7396C26.1113 36.1203 26.5011 35.6698 26.9257 35.6698C27.3503 35.6698 27.7401 36.1203 27.7401 36.7396Z" fill="#A8A8A8" stroke="#A8A8A8" stroke-width="0.237736"/>
<line x1="26.9258" y1="46.0113" x2="44.1886" y2="46.0113" stroke="#A8A8A8" stroke-width="2.37736"/>
<path d="M44.1885 46.0113C46.456 46.0113 48.5773 45.1792 48.5773 40.5433" stroke="#A8A8A8" stroke-width="2.37736"/>
<path d="M27.7401 46.0113C27.7401 46.6305 27.3503 47.0811 26.9257 47.0811C26.5011 47.0811 26.1113 46.6305 26.1113 46.0113C26.1113 45.3921 26.5011 44.9415 26.9257 44.9415C27.3503 44.9415 27.7401 45.3921 27.7401 46.0113Z" fill="#A8A8A8" stroke="#A8A8A8" stroke-width="0.237736"/>
<rect x="21.1189" y="22.1189" width="2.13962" height="24.9623" rx="1.06981" fill="#A8A8A8" stroke="#A8A8A8" stroke-width="0.237736"/>
</svg>
